<?xml version="1.0" ?><svg style="enable-background:new 0 0 48 48;" version="1.1" viewBox="0 0 48 48" xml:space="preserve" xmlns="http://www.w3.org/2000/svg" xmlns:xlink="http://www.w3.org/1999/xlink"><style type="text/css">
	.st0{fill:#c2ab7c;stroke:#2e2512;stroke-width:2;stroke-miterlimit:10;}
	.st1{fill:#none;stroke:#2e2512;stroke-width:2;stroke-linejoin:round;stroke-miterlimit:10;}
	.st2{fill:#none;stroke:#2e2512;stroke-width:2;stroke-linecap:round;stroke-miterlimit:10;}
	.st3{fill:#deac40;stroke:#2e2512;stroke-width:2;stroke-miterlimit:10;}
</style><g id="_x34_8x48"/><g id="icons"><g>
<rect xmlns="http://www.w3.org/2000/svg" x="7" y="8" width="34" height="20" fill="#a6936c"/>
<rect xmlns="http://www.w3.org/2000/svg" x="40" y="22" width="2" height="2" fill="#a6936c"/>
<path class="st3" d="M22,24v-2.5c0-2.7-3-3.9-3-5.4c0-2.6-1-7-1-7.2c0-0.5,1-1.2,1-2.1L18.5,6c0-0.6-0.4-1-0.8-1h-4.3    c-0.5,0-0.8,0.4-0.8,1L12,6.9c0,0.9,1,1.6,1,2.1c0,0.2-1,4.6-1,7.2c0,0.6-0.6,1.2-1.2,1.9"/><path class="st3" d="M33,24v-2.5c0-2.7-3-3.9-3-5.4c0-2.6-1-7-1-7.2c0-0.5,1-1.2,1-2.1L29.5,6c0-0.6-0.4-1-0.8-1h-4.3    c-0.5,0-0.8,0.4-0.8,1L23,6.9c0,0.9,1,1.6,1,2.1c0,0.2-1,4.6-1,7.2c0,0.6-0.6,1.2-1.2,1.9"/><path class="st3" d="M44,24v-2.5c0-2.7-3-3.9-3-5.4c0-2.6-1-7-1-7.2c0-0.5,1-1.2,1-2.1L40.5,6c0-0.6-0.4-1-0.8-1h-4.3    c-0.5,0-0.8,0.4-0.8,1L34,6.9c0,0.9,1,1.6,1,2.1c0,0.2-1,4.6-1,7.2c0,0.6-0.6,1.2-1.2,1.9"/><polygon class="st0" points="13,24 7,18 2,24 2,43 15,43 46,43 46,24   "/><polyline class="st0" points="7,18 7,8 13,8   "/><line class="st0" x1="19" x2="23" y1="8" y2="8"/><line class="st0" x1="30" x2="34" y1="8" y2="8"/><line class="st0" x1="13" x2="13" y1="24" y2="43"/></g></g></svg>